<svg width="64" height="64" viewBox="0 0 64 64" fill="none" xmlns="http://www.w3.org/2000/svg">
<path d="M19 32C23.9706 32 28 27.9706 28 23C28 18.0294 23.9706 14 19 14C14.0294 14 10 18.0294 10 23C10 27.9706 14.0294 32 19 32Z" fill="#FE5352"/>
<path d="M29.25 37C25.73 35.2125 21.845 34.5 19 34.5C13.4275 34.5 2 37.9175 2 44.75V50H20.75V47.9912C20.75 45.6162 21.75 43.235 23.5 41.25C24.8962 39.665 26.8512 38.1937 29.25 37Z" fill="#FE5352"/>
<path d="M42.5 36C35.9913 36 23 40.02 23 48V54H62V48C62 40.02 49.0088 36 42.5 36Z" fill="#FE5352"/>
<path d="M42.5 32C48.5751 32 53.5 27.0751 53.5 21C53.5 14.9249 48.5751 10 42.5 10C36.4249 10 31.5 14.9249 31.5 21C31.5 27.0751 36.4249 32 42.5 32Z" fill="#FE5352"/>
</svg>
