<svg width="51" height="64" viewBox="0 0 44 57" fill="none" xmlns="http://www.w3.org/2000/svg">
<path d="M22.0001 43.3333C23.4146 43.3333 24.7711 42.7714 25.7713 41.7712C26.7715 40.771 27.3334 39.4144 27.3334 38C27.3334 36.5855 26.7715 35.2289 25.7713 34.2287C24.7711 33.2285 23.4146 32.6666 22.0001 32.6666C20.5856 32.6666 19.229 33.2285 18.2288 34.2287C17.2287 35.2289 16.6667 36.5855 16.6667 38C16.6667 39.4144 17.2287 40.771 18.2288 41.7712C19.229 42.7714 20.5856 43.3333 22.0001 43.3333ZM38.0001 19.3333C39.4146 19.3333 40.7711 19.8952 41.7713 20.8954C42.7715 21.8956 43.3334 23.2521 43.3334 24.6666V51.3333C43.3334 52.7478 42.7715 54.1043 41.7713 55.1045C40.7711 56.1047 39.4146 56.6666 38.0001 56.6666H6.00008C4.58559 56.6666 3.22904 56.1047 2.22885 55.1045C1.22865 54.1043 0.666748 52.7478 0.666748 51.3333V24.6666C0.666748 23.2521 1.22865 21.8956 2.22885 20.8954C3.22904 19.8952 4.58559 19.3333 6.00008 19.3333H8.66675V14C8.66675 10.4637 10.0715 7.07235 12.572 4.57187C15.0725 2.07138 18.4639 0.666626 22.0001 0.666626C23.751 0.666626 25.4849 1.0115 27.1025 1.68157C28.7202 2.35163 30.1901 3.33375 31.4282 4.57187C32.6663 5.80998 33.6484 7.27984 34.3185 8.89751C34.9885 10.5152 35.3334 12.249 35.3334 14V19.3333H38.0001ZM22.0001 5.99996C19.8783 5.99996 17.8435 6.84281 16.3432 8.34311C14.8429 9.8434 14.0001 11.8782 14.0001 14V19.3333H30.0001V14C30.0001 11.8782 29.1572 9.8434 27.6569 8.34311C26.1566 6.84281 24.1218 5.99996 22.0001 5.99996Z" fill="#FE5352"/>
</svg>
