<svg width="64" height="64" viewBox="0 0 54 54" fill="none" xmlns="http://www.w3.org/2000/svg">
<path d="M26.9999 53.6667C23.311 53.6667 19.8444 52.9662 16.5999 51.5653C13.3555 50.1645 10.5333 48.2649 8.13326 45.8667C5.73326 43.4685 3.8337 40.6462 2.43459 37.4C1.03548 34.1538 0.335033 30.6871 0.333255 27C0.331478 23.3129 1.03192 19.8462 2.43459 16.6C3.83726 13.3538 5.73681 10.5316 8.13326 8.13334C10.5297 5.73512 13.3519 3.83557 16.5999 2.43468C19.8479 1.03379 23.3146 0.333344 26.9999 0.333344C30.6853 0.333344 34.1519 1.03379 37.3999 2.43468C40.6479 3.83557 43.4701 5.73512 45.8666 8.13334C48.263 10.5316 50.1635 13.3538 51.5679 16.6C52.9724 19.8462 53.6719 23.3129 53.6666 27C53.6613 30.6871 52.9608 34.1538 51.5653 37.4C50.1697 40.6462 48.2701 43.4685 45.8666 45.8667C43.463 48.2649 40.6408 50.1653 37.3999 51.568C34.159 52.9707 30.6924 53.6702 26.9999 53.6667ZM26.9999 48.3333C32.9555 48.3333 37.9999 46.2667 42.1333 42.1333C46.2666 38 48.3333 32.9556 48.3333 27C48.3333 21.0445 46.2666 16 42.1333 11.8667C37.9999 7.73334 32.9555 5.66668 26.9999 5.66668C21.0444 5.66668 15.9999 7.73334 11.8666 11.8667C7.73326 16 5.66659 21.0445 5.66659 27C5.66659 32.9556 7.73326 38 11.8666 42.1333C15.9999 46.2667 21.0444 48.3333 26.9999 48.3333ZM26.9999 43C22.5555 43 18.7777 41.4445 15.6666 38.3333C12.5555 35.2222 10.9999 31.4445 10.9999 27C10.9999 22.5556 12.5555 18.7778 15.6666 15.6667C18.7777 12.5556 22.5555 11 26.9999 11C31.4444 11 35.2221 12.5556 38.3333 15.6667C41.4444 18.7778 42.9999 22.5556 42.9999 27C42.9999 31.4445 41.4444 35.2222 38.3333 38.3333C35.2221 41.4445 31.4444 43 26.9999 43ZM26.9999 37.6667C29.9333 37.6667 32.4444 36.6222 34.5333 34.5333C36.6221 32.4445 37.6666 29.9333 37.6666 27C37.6666 24.0667 36.6221 21.5556 34.5333 19.4667C32.4444 17.3778 29.9333 16.3333 26.9999 16.3333C24.0666 16.3333 21.5555 17.3778 19.4666 19.4667C17.3777 21.5556 16.3333 24.0667 16.3333 27C16.3333 29.9333 17.3777 32.4445 19.4666 34.5333C21.5555 36.6222 24.0666 37.6667 26.9999 37.6667ZM26.9999 32.3333C25.5333 32.3333 24.2781 31.8116 23.2346 30.768C22.191 29.7245 21.6684 28.4685 21.6666 27C21.6648 25.5316 22.1875 24.2765 23.2346 23.2347C24.2817 22.1929 25.5368 21.6702 26.9999 21.6667C28.463 21.6631 29.719 22.1858 30.7679 23.2347C31.8168 24.2836 32.3386 25.5387 32.3333 27C32.3279 28.4613 31.8061 29.7173 30.7679 30.768C29.7297 31.8187 28.4737 32.3405 26.9999 32.3333Z" fill="#FE5352"/>
</svg>
