<svg width="28" height="28" viewBox="0 0 28 28" fill="none" xmlns="http://www.w3.org/2000/svg">
<path d="M20.358 26.5418C19.0397 26.5418 17.6513 26.2268 16.2163 25.6202C14.8163 25.0252 13.4047 24.2085 12.028 23.2168C10.663 22.2135 9.34467 21.0935 8.09634 19.8685C6.85967 18.6202 5.73967 17.3018 4.74801 15.9485C3.74467 14.5485 2.93967 13.1485 2.36801 11.7952C1.76134 10.3485 1.45801 8.9485 1.45801 7.63016C1.45801 6.72016 1.62134 5.85683 1.93634 5.05183C2.26301 4.2235 2.78801 3.4535 3.49967 2.7885C4.39801 1.90183 5.42467 1.4585 6.52134 1.4585C6.97634 1.4585 7.44301 1.5635 7.83967 1.75016C8.29467 1.96016 8.67967 2.27516 8.95967 2.69516L11.6663 6.51016C11.9113 6.8485 12.098 7.17516 12.2263 7.50183C12.378 7.85183 12.4597 8.20183 12.4597 8.54016C12.4597 8.9835 12.3313 9.41516 12.0863 9.8235C11.9113 10.1385 11.643 10.4768 11.3047 10.8152L10.5113 11.6435C10.523 11.6785 10.5347 11.7018 10.5463 11.7252C10.6863 11.9702 10.9663 12.3902 11.503 13.0202C12.0747 13.6735 12.6113 14.2685 13.148 14.8168C13.8363 15.4935 14.408 16.0302 14.9447 16.4735C15.6097 17.0335 16.0413 17.3135 16.298 17.4418L16.2747 17.5002L17.1263 16.6602C17.488 16.2985 17.838 16.0302 18.1763 15.8552C18.818 15.4585 19.6347 15.3885 20.4513 15.7268C20.7547 15.8552 21.0813 16.0302 21.4313 16.2752L25.3047 19.0285C25.7363 19.3202 26.0513 19.6935 26.238 20.1368C26.413 20.5802 26.4947 20.9885 26.4947 21.3968C26.4947 21.9568 26.3663 22.5168 26.1213 23.0418C25.8763 23.5668 25.573 24.0218 25.188 24.4418C24.523 25.1768 23.7997 25.7018 22.9597 26.0402C22.1547 26.3668 21.2797 26.5418 20.358 26.5418ZM6.52134 3.2085C5.87967 3.2085 5.28467 3.4885 4.71301 4.0485C4.17634 4.55016 3.80301 5.0985 3.56967 5.6935C3.32467 6.30016 3.20801 6.94183 3.20801 7.63016C3.20801 8.71516 3.46467 9.8935 3.97801 11.1068C4.50301 12.3435 5.23801 13.6268 6.17134 14.9102C7.10467 16.1935 8.16634 17.4418 9.33301 18.6202C10.4997 19.7752 11.7597 20.8485 13.0547 21.7935C14.3147 22.7152 15.6097 23.4618 16.893 23.9985C18.888 24.8502 20.7547 25.0485 22.2947 24.4068C22.8897 24.1618 23.4147 23.7885 23.893 23.2518C24.1613 22.9602 24.3713 22.6452 24.5463 22.2718C24.6863 21.9802 24.7563 21.6768 24.7563 21.3735C24.7563 21.1868 24.7213 21.0002 24.628 20.7902C24.593 20.7202 24.523 20.5918 24.3013 20.4402L20.428 17.6868C20.1947 17.5235 19.9847 17.4068 19.7863 17.3252C19.5297 17.2202 19.4247 17.1152 19.028 17.3602C18.7947 17.4768 18.5847 17.6518 18.3513 17.8852L17.4647 18.7602C17.0097 19.2035 16.3097 19.3085 15.773 19.1102L15.458 18.9702C14.9797 18.7135 14.4197 18.3168 13.8013 17.7918C13.2413 17.3135 12.6347 16.7535 11.8997 16.0302C11.328 15.4468 10.7563 14.8285 10.1613 14.1402C9.61301 13.4985 9.21634 12.9502 8.97134 12.4952L8.83134 12.1452C8.76134 11.8768 8.73801 11.7252 8.73801 11.5618C8.73801 11.1418 8.88967 10.7685 9.18134 10.4768L10.0563 9.56683C10.2897 9.3335 10.4647 9.11183 10.5813 8.9135C10.6747 8.76183 10.7097 8.6335 10.7097 8.51683C10.7097 8.4235 10.6747 8.2835 10.6163 8.1435C10.5347 7.95683 10.4063 7.74683 10.243 7.52516L7.53634 3.6985C7.41967 3.53516 7.27967 3.4185 7.10467 3.33683C6.91801 3.25516 6.71967 3.2085 6.52134 3.2085ZM16.2747 17.5118L16.088 18.3052L16.403 17.4885C16.3447 17.4768 16.298 17.4885 16.2747 17.5118Z" fill="#FE5352"/>
</svg>
