<svg width="28" height="28" viewBox="0 0 28 28" fill="none" xmlns="http://www.w3.org/2000/svg">
<path d="M13.9997 26.5418C7.08134 26.5418 1.45801 20.9185 1.45801 14.0002C1.45801 7.08183 7.08134 1.4585 13.9997 1.4585C20.918 1.4585 26.5413 7.08183 26.5413 14.0002C26.5413 20.9185 20.918 26.5418 13.9997 26.5418ZM13.9997 3.2085C8.04967 3.2085 3.20801 8.05016 3.20801 14.0002C3.20801 19.9502 8.04967 24.7918 13.9997 24.7918C19.9497 24.7918 24.7913 19.9502 24.7913 14.0002C24.7913 8.05016 19.9497 3.2085 13.9997 3.2085Z" fill="#FE5352"/>
<path d="M18.3284 18.5851C18.1767 18.5851 18.0251 18.5501 17.8851 18.4567L14.2684 16.2984C13.3701 15.7617 12.7051 14.5834 12.7051 13.5451V8.76172C12.7051 8.28339 13.1017 7.88672 13.5801 7.88672C14.0584 7.88672 14.4551 8.28339 14.4551 8.76172V13.5451C14.4551 13.9651 14.8051 14.5834 15.1667 14.7934L18.7834 16.9517C19.2034 17.1967 19.3317 17.7334 19.0867 18.1534C18.9117 18.4334 18.6201 18.5851 18.3284 18.5851Z" fill="#FE5352"/>
</svg>
