<svg width="28" height="28" viewBox="0 0 28 28" fill="none" xmlns="http://www.w3.org/2000/svg">
<path d="M18.6667 26.5417H9.33333C2.625 26.5417 2.625 22.9833 2.625 19.8333V18.6667C2.625 16.065 2.625 13.125 8.16667 13.125C9.555 13.125 10.0683 13.4633 10.7917 14C10.8267 14.035 10.8733 14.0583 10.9083 14.105L12.0983 15.365C13.1017 16.4267 14.9217 16.4267 15.925 15.365L17.115 14.105C17.15 14.07 17.185 14.035 17.2317 14C17.955 13.4517 18.4683 13.125 19.8567 13.125C25.3983 13.125 25.3983 16.065 25.3983 18.6667V19.8333C25.375 24.29 23.1233 26.5417 18.6667 26.5417ZM8.16667 14.875C4.375 14.875 4.375 16.065 4.375 18.6667V19.8333C4.375 23.03 4.375 24.7917 9.33333 24.7917H18.6667C22.1433 24.7917 23.625 23.31 23.625 19.8333V18.6667C23.625 16.065 23.625 14.875 19.8333 14.875C18.9933 14.875 18.8183 14.98 18.3167 15.3533L17.185 16.555C16.345 17.4417 15.2133 17.9317 14 17.9317C12.7867 17.9317 11.655 17.4417 10.815 16.555L9.68333 15.3533C9.18167 14.98 9.00667 14.875 8.16667 14.875Z" fill="#FE5352"/>
<path d="M22.1663 14.8752C21.688 14.8752 21.2913 14.4785 21.2913 14.0002V7.00016C21.2913 4.3985 21.2913 3.2085 17.4997 3.2085H10.4997C6.70801 3.2085 6.70801 4.3985 6.70801 7.00016V14.0002C6.70801 14.4785 6.31134 14.8752 5.83301 14.8752C5.35467 14.8752 4.95801 14.4785 4.95801 14.0002V7.00016C4.95801 4.3985 4.95801 1.4585 10.4997 1.4585H17.4997C23.0413 1.4585 23.0413 4.3985 23.0413 7.00016V14.0002C23.0413 14.4785 22.6447 14.8752 22.1663 14.8752Z" fill="#FE5352"/>
<path d="M16.1936 11.6436H12.3086C11.8303 11.6436 11.4336 11.2469 11.4336 10.7686C11.4336 10.2902 11.8303 9.89355 12.3086 9.89355H16.1936C16.6719 9.89355 17.0686 10.2902 17.0686 10.7686C17.0686 11.2469 16.6836 11.6436 16.1936 11.6436Z" fill="#FE5352"/>
<path d="M17.1732 8.14355H11.3398C10.8615 8.14355 10.4648 7.74689 10.4648 7.26855C10.4648 6.79022 10.8615 6.39355 11.3398 6.39355H17.1732C17.6515 6.39355 18.0482 6.79022 18.0482 7.26855C18.0482 7.74689 17.6632 8.14355 17.1732 8.14355Z" fill="#FE5352"/>
</svg>
